<svg width="46" height="44" viewBox="0 0 46 44" fill="none" xmlns="http://www.w3.org/2000/svg">
<path d="M42 12.2531H34.3262C34.4116 12.1809 34.4991 12.1109 34.5822 12.0343C35.2466 11.4441 35.782 10.7231 36.155 9.91648C36.528 9.10987 36.7306 8.23496 36.75 7.34649C36.7787 6.37453 36.6085 5.40695 36.2498 4.50315C35.891 3.59935 35.3514 2.77841 34.6639 2.09073C33.9764 1.40304 33.1556 0.863126 32.2519 0.504124C31.3483 0.145121 30.3807 -0.0253916 29.4088 0.00305406C28.5199 0.0221987 27.6446 0.224615 26.8376 0.597632C26.0306 0.970649 25.3092 1.50624 24.7188 2.17087C23.9017 3.11782 23.2374 4.18652 22.75 5.33837C22.2626 4.18652 21.5983 3.11782 20.7812 2.17087C20.1908 1.50624 19.4694 0.970649 18.6624 0.597632C17.8554 0.224615 16.9801 0.0221987 16.0912 0.00305406C15.1193 -0.0253916 14.1517 0.145121 13.2481 0.504124C12.3444 0.863126 11.5236 1.40304 10.8361 2.09073C10.1486 2.77841 9.60896 3.59935 9.25022 4.50315C8.89149 5.40695 8.72126 6.37453 8.75 7.34649C8.76944 8.23496 8.972 9.10987 9.34501 9.91648C9.71802 10.7231 10.2534 11.4441 10.9178 12.0343C11.0009 12.1065 11.0884 12.1765 11.1737 12.2531H3.5C2.57174 12.2531 1.6815 12.6218 1.02513 13.2782C0.368749 13.9346 0 14.8248 0 15.7531V22.7531C0 23.6813 0.368749 24.5716 1.02513 25.2279C1.6815 25.8843 2.57174 26.2531 3.5 26.2531V40.2531C3.5 41.1813 3.86875 42.0715 4.52513 42.7279C5.1815 43.3843 6.07174 43.7531 7 43.7531H38.5C39.4283 43.7531 40.3185 43.3843 40.9749 42.7279C41.6312 42.0715 42 41.1813 42 40.2531V26.2531C42.9283 26.2531 43.8185 25.8843 44.4749 25.2279C45.1312 24.5716 45.5 23.6813 45.5 22.7531V15.7531C45.5 14.8248 45.1312 13.9346 44.4749 13.2782C43.8185 12.6218 42.9283 12.2531 42 12.2531ZM27.3438 4.48962C27.6208 4.18363 27.9582 3.93823 28.3346 3.76884C28.7111 3.59944 29.1185 3.50969 29.5312 3.50524H29.6384C30.1222 3.50827 30.6006 3.60783 31.0454 3.79809C31.4902 3.98834 31.8926 4.26548 32.229 4.61324C32.5653 4.96101 32.8289 5.37241 33.0042 5.82335C33.1796 6.27428 33.2631 6.75567 33.25 7.2393C33.2455 7.65208 33.1558 8.05948 32.9864 8.43592C32.817 8.81236 32.5716 9.14972 32.2656 9.4268C30.1897 11.2643 26.7444 11.9118 24.6094 12.1393C24.8719 9.82274 25.5938 6.45618 27.3438 4.48962ZM13.3241 4.56837C14.0021 3.89044 14.9203 3.50758 15.8791 3.50305H15.9862C16.399 3.50751 16.8064 3.59725 17.1829 3.76665C17.5593 3.93605 17.8967 4.18144 18.1737 4.48743C20.0091 6.56118 20.6566 9.99993 20.8841 12.1262C18.7578 11.9074 15.3191 11.2512 13.2453 9.41587C12.9393 9.13878 12.6939 8.80143 12.5245 8.42498C12.3551 8.04854 12.2654 7.64114 12.2609 7.22837C12.2474 6.73669 12.3338 6.24739 12.5151 5.79014C12.6963 5.33289 12.9686 4.91722 13.3153 4.56837H13.3241ZM3.5 15.7531H21V22.7531H3.5V15.7531ZM7 26.2531H21V40.2531H7V26.2531ZM38.5 40.2531H24.5V26.2531H38.5V40.2531ZM42 22.7531H24.5V15.7531H42V22.7531Z" fill="#2F948C"/>
</svg>
