<svg width="79" height="79" viewBox="0 0 79 79" fill="none" xmlns="http://www.w3.org/2000/svg">
<path d="M50.6094 43.2031C51.3418 43.2031 52.0577 42.9859 52.6667 42.579C53.2757 42.1721 53.7503 41.5938 54.0306 40.9171C54.3109 40.2405 54.3842 39.4959 54.2413 38.7776C54.0984 38.0592 53.7458 37.3994 53.2279 36.8815C52.71 36.3636 52.0501 36.0109 51.3318 35.868C50.6135 35.7251 49.8689 35.7985 49.1922 36.0788C48.5156 36.359 47.9372 36.8337 47.5303 37.4427C47.1234 38.0516 46.9062 38.7676 46.9062 39.5C46.9062 40.4821 47.2964 41.424 47.9909 42.1185C48.6853 42.813 49.6272 43.2031 50.6094 43.2031ZM28.3906 35.7969C29.123 35.7969 29.839 36.0141 30.448 36.421C31.0569 36.8279 31.5316 37.4062 31.8119 38.0829C32.0921 38.7595 32.1655 39.5041 32.0226 40.2224C31.8797 40.9408 31.527 41.6006 31.0091 42.1185C30.4912 42.6364 29.8314 42.9891 29.1131 43.132C28.3947 43.2749 27.6501 43.2015 26.9735 42.9212C26.2968 42.641 25.7185 42.1663 25.3116 41.5573C24.9047 40.9484 24.6875 40.2324 24.6875 39.5C24.6875 38.5179 25.0776 37.576 25.7721 36.8815C26.4666 36.187 27.4085 35.7969 28.3906 35.7969ZM32.1771 49.7546C34.3758 51.1192 36.9122 51.8423 39.5 51.8423C42.0878 51.8423 44.6242 51.1192 46.8229 49.7546C47.377 49.4051 48.0472 49.29 48.6861 49.4347C49.325 49.5794 49.8803 49.972 50.2298 50.5261C50.5793 51.0801 50.6943 51.7504 50.5496 52.3893C50.405 53.0282 50.0124 53.5835 49.4583 53.9329C46.4707 55.7954 43.0206 56.7827 39.5 56.7827C35.9794 56.7827 32.5293 55.7954 29.5417 53.9329C28.9876 53.5835 28.595 53.0282 28.4503 52.3893C28.3057 51.7504 28.4207 51.0801 28.7702 50.5261C29.1197 49.972 29.6749 49.5794 30.3138 49.4347C30.9528 49.29 31.623 49.4051 32.1771 49.7546ZM7.40623 39.5C7.40623 45.8475 9.2885 52.0525 12.815 57.3303C16.3415 62.6081 21.3539 66.7217 27.2182 69.1508C33.0826 71.5799 39.5356 72.2154 45.7612 70.9771C51.9867 69.7387 57.7053 66.6821 62.1937 62.1937C66.6821 57.7053 69.7387 51.9868 70.9771 45.7612C72.2154 39.5356 71.5798 33.0826 69.1507 27.2183C66.7216 21.3539 62.6081 16.3415 57.3303 12.815C52.0525 9.28852 45.8475 7.40625 39.5 7.40625C30.991 7.41524 22.833 10.7994 16.8162 16.8162C10.7994 22.833 7.41522 30.991 7.40623 39.5ZM12.3437 39.5C12.3523 32.5093 15.0532 25.7904 19.8854 20.7387C24.7176 15.6869 31.3099 12.6905 38.2934 12.3715C41.87 17.3985 41.9687 22.1817 41.9687 22.2188C41.9687 22.8735 41.7086 23.5014 41.2457 23.9644C40.7827 24.4274 40.1547 24.6875 39.5 24.6875C38.8452 24.6875 38.2173 24.4274 37.7543 23.9644C37.2913 23.5014 37.0312 22.8735 37.0312 22.2188C37.0312 21.564 36.7711 20.9361 36.3082 20.4731C35.8452 20.0101 35.2172 19.75 34.5625 19.75C33.9077 19.75 33.2798 20.0101 32.8168 20.4731C32.3538 20.9361 32.0937 21.564 32.0937 22.2188C32.0937 24.183 32.874 26.0668 34.263 27.4558C35.6519 28.8447 37.5357 29.625 39.5 29.625C41.4642 29.625 43.3481 28.8447 44.737 27.4558C46.1259 26.0668 46.9062 24.183 46.9062 22.2188C46.9062 21.9935 46.8661 17.8059 44.2955 12.7665C49.3801 13.6787 54.0989 16.0222 57.8984 19.522C61.6979 23.0218 64.4204 27.5327 65.7463 32.5253C67.0723 37.5179 66.9468 42.7852 65.3845 47.709C63.8222 52.6328 60.888 57.0088 56.9261 60.3237C52.9642 63.6385 48.1391 65.7546 43.0169 66.4236C37.8947 67.0925 32.6879 66.2867 28.0076 64.1006C23.3273 61.9145 19.3675 58.4388 16.5931 54.0814C13.8186 49.724 12.3445 44.6657 12.3437 39.5Z" fill="#B2DBD8"/>
</svg>
