<svg width="42" height="42" viewBox="0 0 42 42" fill="none" xmlns="http://www.w3.org/2000/svg">
<path d="M28.4911 16.1339C28.6131 16.2558 28.7099 16.4006 28.776 16.5599C28.842 16.7192 28.876 16.89 28.876 17.0625C28.876 17.235 28.842 17.4058 28.776 17.5651C28.7099 17.7244 28.6131 17.8692 28.4911 17.9911L19.3036 27.1786C19.1817 27.3006 19.037 27.3974 18.8776 27.4635C18.7183 27.5295 18.5475 27.5635 18.375 27.5635C18.2025 27.5635 18.0317 27.5295 17.8724 27.4635C17.7131 27.3974 17.5683 27.3006 17.4464 27.1786L13.5089 23.2411C13.2626 22.9948 13.1243 22.6608 13.1243 22.3125C13.1243 21.9642 13.2626 21.6302 13.5089 21.3839C13.7552 21.1376 14.0892 20.9993 14.4375 20.9993C14.7858 20.9993 15.1198 21.1376 15.3661 21.3839L18.375 24.3945L26.6339 16.1339C26.7558 16.0119 26.9006 15.9151 27.0599 15.849C27.2192 15.783 27.39 15.749 27.5625 15.749C27.735 15.749 27.9058 15.783 28.0651 15.849C28.2245 15.9151 28.3692 16.0119 28.4911 16.1339ZM38.0625 21C38.0625 24.3746 37.0618 27.6735 35.187 30.4794C33.3121 33.2853 30.6473 35.4723 27.5295 36.7637C24.4118 38.0551 20.9811 38.393 17.6713 37.7346C14.3615 37.0763 11.3212 35.4512 8.935 33.065C6.54876 30.6788 4.92372 27.6385 4.26536 24.3287C3.607 21.0189 3.94489 17.5882 5.23631 14.4705C6.52773 11.3527 8.71468 8.6879 11.5206 6.81305C14.3265 4.9382 17.6254 3.9375 21 3.9375C25.5238 3.94228 29.8609 5.74146 33.0597 8.94027C36.2585 12.1391 38.0577 16.4762 38.0625 21ZM35.4375 21C35.4375 18.1445 34.5908 15.3532 33.0044 12.979C31.4179 10.6047 29.1631 8.75423 26.525 7.66149C23.8869 6.56875 20.984 6.28284 18.1834 6.83991C15.3828 7.39699 12.8103 8.77203 10.7912 10.7911C8.77203 12.8103 7.39699 15.3828 6.83992 18.1834C6.28285 20.984 6.56876 23.8869 7.6615 26.525C8.75424 29.1631 10.6047 31.4179 12.979 33.0043C15.3532 34.5908 18.1445 35.4375 21 35.4375C24.8277 35.4332 28.4975 33.9107 31.2041 31.2041C33.9107 28.4974 35.4332 24.8277 35.4375 21Z" fill="#2F948C"/>
</svg>
