<svg width="79" height="79" viewBox="0 0 79 79" fill="none" xmlns="http://www.w3.org/2000/svg">
<path d="M2.68171 38.5002C2.78972 38.2564 5.4035 32.4579 11.2143 26.6471C18.9569 18.9045 28.7363 14.8125 39.5 14.8125C50.2638 14.8125 60.0431 18.9045 67.7857 26.6471C73.5966 32.4579 76.2227 38.2656 76.3183 38.5002C76.4587 38.8159 76.5312 39.1576 76.5312 39.5031C76.5312 39.8486 76.4587 40.1903 76.3183 40.506C76.2103 40.7498 73.5966 46.5452 67.7857 52.356C60.0431 60.0955 50.2638 64.1875 39.5 64.1875C28.7363 64.1875 18.9569 60.0955 11.2143 52.356C5.4035 46.5452 2.78972 40.7498 2.68171 40.506C2.54134 40.1903 2.4688 39.8486 2.4688 39.5031C2.4688 39.1576 2.54134 38.8159 2.68171 38.5002ZM39.5 59.25C48.9985 59.25 57.2966 55.7968 64.1659 48.9893C66.9845 46.1863 69.3824 42.9901 71.2852 39.5C69.3829 36.0096 66.9849 32.8133 64.1659 30.0107C57.2966 23.2032 48.9985 19.75 39.5 19.75C30.0015 19.75 21.7034 23.2032 14.8341 30.0107C12.0101 32.8126 9.60689 36.0089 7.69944 39.5C9.9244 43.6537 19.6173 59.25 39.5 59.25ZM39.5 24.6875C42.4297 24.6875 45.2935 25.5562 47.7294 27.1839C50.1653 28.8115 52.0639 31.1249 53.185 33.8315C54.3061 36.5381 54.5995 39.5164 54.0279 42.3898C53.4564 45.2631 52.0456 47.9025 49.974 49.974C47.9025 52.0456 45.2631 53.4563 42.3898 54.0279C39.5165 54.5994 36.5382 54.3061 33.8315 53.185C31.1249 52.0638 28.8115 50.1653 27.1839 47.7294C25.5563 45.2935 24.6875 42.4296 24.6875 39.5C24.6916 35.5727 26.2535 31.8075 29.0305 29.0305C31.8075 26.2535 35.5728 24.6916 39.5 24.6875ZM39.5 49.375C41.4531 49.375 43.3623 48.7958 44.9863 47.7108C46.6102 46.6257 47.8759 45.0834 48.6233 43.279C49.3708 41.4746 49.5663 39.489 49.1853 37.5735C48.8043 35.6579 47.8638 33.8984 46.4827 32.5173C45.1017 31.1363 43.3421 30.1958 41.4265 29.8147C39.511 29.4337 37.5255 29.6293 35.721 30.3767C33.9166 31.1241 32.3743 32.3898 31.2893 34.0137C30.2042 35.6377 29.625 37.5469 29.625 39.5C29.625 42.119 30.6654 44.6308 32.5173 46.4827C34.3693 48.3346 36.881 49.375 39.5 49.375Z" fill="#B2DBD8"/>
</svg>
