<svg width="79" height="79" viewBox="0 0 79 79" fill="none" xmlns="http://www.w3.org/2000/svg">
<path d="M3.13838 37.5343C3.45329 36.981 3.87527 36.496 4.37968 36.1076C4.88409 35.7193 5.46082 35.4353 6.07619 35.2723C8.30865 34.6976 10.6156 34.4666 12.9177 34.5872C11.6833 28.4616 12.6091 23.6167 13.5534 20.7437C13.9298 19.5635 14.7322 18.5658 15.8042 17.9451C16.8762 17.3244 18.141 17.1251 19.3519 17.3862C22.4921 18.0855 25.4779 19.3531 28.1622 21.1263C30.1281 17.1104 32.9904 13.5999 36.5282 10.8656C37.3856 10.2226 38.4283 9.875 39.5 9.875C40.5716 9.875 41.6144 10.2226 42.4717 10.8656C46.0103 13.5991 48.8728 17.1098 50.8377 21.1263C53.522 19.3531 56.5079 18.0855 59.6481 17.3862C60.859 17.1251 62.1237 17.3244 63.1957 17.9451C64.2677 18.5658 65.0701 19.5635 65.4465 20.7437C66.3723 23.6167 67.2981 28.4585 66.0822 34.5872C68.3843 34.4666 70.6913 34.6976 72.9238 35.2723C73.5391 35.4353 74.1159 35.7193 74.6203 36.1076C75.1247 36.496 75.5467 36.981 75.8616 37.5343C76.1911 38.101 76.4045 38.7277 76.4893 39.3778C76.5741 40.0279 76.5285 40.6884 76.3553 41.3207C75.3092 45.1997 72.0967 52.5782 62.3668 58.3921C52.6368 64.206 44.0888 64.1875 39.4846 64.1875C34.8803 64.1875 26.3169 64.1875 16.6486 58.3921C6.91866 52.5782 3.70619 45.1997 2.66006 41.3207C2.48455 40.6894 2.43646 40.0295 2.51858 39.3794C2.6007 38.7293 2.81139 38.1021 3.13838 37.5343ZM60.7497 22.262C60.7461 22.2466 60.7367 22.2333 60.7235 22.2247C60.7103 22.2161 60.6943 22.2129 60.6788 22.2157C57.8073 22.8643 55.0976 24.0895 52.714 25.817C53.7993 29.3675 54.3383 33.0625 54.3125 36.7751C54.3125 42.5582 53.1491 47.2673 51.5012 51.0568C53.8439 48.7121 55.871 46.0719 57.5311 43.2031C63.092 33.5195 61.9347 25.9219 60.7497 22.262ZM59.824 54.1551C68.0542 49.2423 70.7235 43.2186 71.5937 40.0246C69.323 39.4656 66.9668 39.343 64.6504 39.6636C63.877 41.7351 62.9326 43.7386 61.8267 45.6534C59.1116 50.3345 55.5544 54.4734 51.3346 57.8613C54.3185 57.0034 57.1768 55.7574 59.8363 54.1551H59.824ZM39.5 58.7562C42.3792 56.6146 49.375 50.0446 49.375 36.7751C49.375 23.6691 42.4687 17.0467 39.5 14.8125C36.5313 17.0529 29.625 23.6753 29.625 36.7813C29.625 50.0446 36.6208 56.6146 39.5 58.7562ZM26.286 25.817C23.9021 24.0906 21.1924 22.8665 18.3212 22.2188C18.3057 22.2159 18.2897 22.2192 18.2765 22.2278C18.2633 22.2364 18.2539 22.2497 18.2502 22.265C17.0652 25.9219 15.908 33.5195 21.4689 43.2031C23.1276 46.0757 25.1547 48.7191 27.4988 51.0661C25.8509 47.2827 24.6875 42.5674 24.6875 36.7844C24.6607 33.0686 25.1997 29.3705 26.286 25.817ZM7.40623 40.0308C8.26104 43.1939 10.9242 49.23 19.1606 54.1551C21.8202 55.7563 24.6785 57.0013 27.6623 57.8582C23.4425 54.4703 19.8853 50.3314 17.1701 45.6503C16.0643 43.7355 15.1198 41.732 14.3465 39.6605C12.0307 39.3414 9.6754 39.466 7.40623 40.0277V40.0308Z" fill="#B2DBD8"/>
</svg>
