<svg width="79" height="79" viewBox="0 0 79 79" fill="none" xmlns="http://www.w3.org/2000/svg">
<path d="M52.0683 28.7273H53.6842C53.3252 27.8296 52.966 27.1114 52.4275 26.2137C51.3502 24.2387 50.2729 22.0841 50.2729 19.5704C50.2729 13.825 53.1456 10.7727 58.3525 10.7727C70.2023 10.7727 79 20.4683 79 33.216C79 44.1683 73.9727 50.2727 64.6363 50.2727C61.225 50.2727 58.5317 49.375 56.5567 47.4C54.4021 45.2454 53.5044 42.0137 53.5044 37.7046C53.5044 36.6273 54.4021 35.9092 55.2998 35.9092C56.3771 35.9092 57.0952 36.8069 57.0952 37.7046C57.0952 41.116 57.6339 43.45 59.0702 44.8864C60.327 46.1431 62.1225 46.6818 64.6362 46.6818C71.8179 46.6818 75.4089 42.3727 75.4089 33.2158C75.4089 22.4431 68.0475 14.3635 58.3521 14.3635C56.0181 14.3635 53.8635 14.9022 53.8635 19.3908C53.8635 21.0068 54.7612 22.6226 55.6589 24.4181C56.7362 26.2135 57.6339 28.1885 57.6339 30.5227C57.6339 31.6 56.9156 32.3181 55.8385 32.3181H52.0681C48.1181 32.3181 44.8863 35.5499 44.8863 39.4999V66.4316C44.8863 67.5089 44.1681 68.227 43.091 68.227C42.0138 68.227 41.2956 67.5087 41.2956 66.4316V39.5C41.2954 33.575 46.1433 28.7273 52.0683 28.7273Z" fill="#B2DBD8"/>
<path d="M20.6477 10.7727C25.8544 10.7727 28.7273 13.825 28.7273 19.391C28.7273 21.9046 27.65 24.0592 26.5727 26.0342C26.034 26.9319 25.675 27.8296 25.3159 28.5479H26.9319C32.8569 28.5479 37.7046 33.3956 37.7046 39.3206V66.2523C37.7046 67.3296 36.9863 68.0477 35.9092 68.0477C34.8319 68.0477 34.1138 67.3295 34.1138 66.2523V39.5C34.1138 35.55 30.882 32.3183 26.932 32.3183H23.1616C22.0843 32.3183 21.3662 31.6 21.3662 30.5229C21.3662 28.1888 22.4435 26.3933 23.3412 24.4183C24.2389 22.8023 25.1366 21.1865 25.1366 19.391C25.1366 14.9023 22.982 14.3637 20.648 14.3637C10.9526 14.3637 3.59124 22.4433 3.59124 33.216C3.59124 42.1933 7.1822 46.6819 14.3639 46.6819C16.8776 46.6819 18.673 46.1433 19.9299 44.8865C21.3662 43.4502 21.9049 41.1161 21.9049 37.7048C21.9049 36.6275 22.6231 35.9094 23.7003 35.9094C24.598 35.9094 25.4957 36.6276 25.4957 37.7048C25.4957 42.1934 24.598 45.2457 22.4434 47.4002C20.4684 49.3752 17.7751 50.2729 14.3638 50.2729C5.02744 50.2729 0.000141144 44.1683 0.000141144 33.2161C-1.14441e-05 20.4683 8.79768 10.7727 20.6477 10.7727Z" fill="#B2DBD8"/>
</svg>
