<svg width="42" height="42" viewBox="0 0 42 42" fill="none" xmlns="http://www.w3.org/2000/svg">
<path d="M35.0536 13.5089L25.8661 4.32141C25.7441 4.19956 25.5993 4.10294 25.44 4.03707C25.2807 3.9712 25.1099 3.93736 24.9375 3.9375H9.1875C8.49131 3.9375 7.82363 4.21406 7.33134 4.70634C6.83906 5.19863 6.5625 5.86631 6.5625 6.5625V35.4375C6.5625 36.1337 6.83906 36.8014 7.33134 37.2937C7.82363 37.7859 8.49131 38.0625 9.1875 38.0625H32.8125C33.5087 38.0625 34.1764 37.7859 34.6687 37.2937C35.1609 36.8014 35.4375 36.1337 35.4375 35.4375V14.4375C35.4376 14.2651 35.4038 14.0943 35.3379 13.935C35.2721 13.7757 35.1754 13.6309 35.0536 13.5089ZM26.25 8.41805L30.957 13.125H26.25V8.41805ZM32.8125 35.4375H9.1875V6.5625H23.625V14.4375C23.625 14.7856 23.7633 15.1194 24.0094 15.3656C24.2556 15.6117 24.5894 15.75 24.9375 15.75H32.8125V35.4375ZM27.5625 22.3125C27.5625 22.6606 27.4242 22.9944 27.1781 23.2406C26.9319 23.4867 26.5981 23.625 26.25 23.625H15.75C15.4019 23.625 15.0681 23.4867 14.8219 23.2406C14.5758 22.9944 14.4375 22.6606 14.4375 22.3125C14.4375 21.9644 14.5758 21.6306 14.8219 21.3844C15.0681 21.1383 15.4019 21 15.75 21H26.25C26.5981 21 26.9319 21.1383 27.1781 21.3844C27.4242 21.6306 27.5625 21.9644 27.5625 22.3125ZM27.5625 27.5625C27.5625 27.9106 27.4242 28.2444 27.1781 28.4906C26.9319 28.7367 26.5981 28.875 26.25 28.875H15.75C15.4019 28.875 15.0681 28.7367 14.8219 28.4906C14.5758 28.2444 14.4375 27.9106 14.4375 27.5625C14.4375 27.2144 14.5758 26.8806 14.8219 26.6344C15.0681 26.3883 15.4019 26.25 15.75 26.25H26.25C26.5981 26.25 26.9319 26.3883 27.1781 26.6344C27.4242 26.8806 27.5625 27.2144 27.5625 27.5625Z" fill="#2F948C"/>
</svg>
