<svg width="29" height="36" viewBox="0 0 29 36" fill="none" xmlns="http://www.w3.org/2000/svg">
<path d="M14.4375 7.6875C13.1396 7.6875 11.8708 8.06322 10.7916 8.76715C9.71237 9.47108 8.87124 10.4716 8.37454 11.6422C7.87784 12.8128 7.74788 14.1009 8.0011 15.3435C8.25431 16.5862 8.87933 17.7277 9.79711 18.6237C10.7149 19.5196 11.8842 20.1297 13.1572 20.3769C14.4302 20.6241 15.7497 20.4972 16.9489 20.0124C18.148 19.5275 19.1729 18.7064 19.894 17.6529C20.6151 16.5994 21 15.3608 21 14.0938C21 12.3947 20.3086 10.7653 19.0779 9.56385C17.8472 8.36244 16.178 7.6875 14.4375 7.6875ZM14.4375 17.9375C13.6587 17.9375 12.8975 17.7121 12.2499 17.2897C11.6024 16.8674 11.0977 16.267 10.7997 15.5647C10.5017 14.8623 10.4237 14.0895 10.5757 13.3439C10.7276 12.5983 11.1026 11.9134 11.6533 11.3758C12.2039 10.8383 12.9055 10.4722 13.6693 10.3239C14.4331 10.1755 15.2248 10.2517 15.9443 10.5426C16.6638 10.8335 17.2788 11.3262 17.7114 11.9583C18.1441 12.5904 18.375 13.3335 18.375 14.0938C18.375 15.1132 17.9602 16.0908 17.2217 16.8117C16.4833 17.5325 15.4818 17.9375 14.4375 17.9375ZM14.4375 0C10.6098 0.00423891 6.94006 1.49047 4.23344 4.13265C1.52683 6.77482 0.0043423 10.3572 0 14.0938C0 19.1227 2.38055 24.4527 6.89062 29.5088C8.91716 31.7935 11.198 33.8509 13.691 35.6428C13.9117 35.7937 14.1746 35.8746 14.4441 35.8746C14.7135 35.8746 14.9764 35.7937 15.1971 35.6428C17.6855 33.8501 19.9619 31.7928 21.9844 29.5088C26.4879 24.4527 28.875 19.1227 28.875 14.0938C28.8707 10.3572 27.3482 6.77482 24.6416 4.13265C21.9349 1.49047 18.2652 0.00423891 14.4375 0ZM14.4375 32.9922C11.7255 30.9102 2.625 23.2627 2.625 14.0938C2.625 11.0355 3.86953 8.10245 6.0848 5.93992C8.30007 3.7774 11.3046 2.5625 14.4375 2.5625C17.5704 2.5625 20.5749 3.7774 22.7902 5.93992C25.0055 8.10245 26.25 11.0355 26.25 14.0938C26.25 23.2595 17.1495 30.9102 14.4375 32.9922Z" fill="#2F948C"/>
</svg>
