<svg width="79" height="79" viewBox="0 0 79 79" fill="none" xmlns="http://www.w3.org/2000/svg">
<path fill-rule="evenodd" clip-rule="evenodd" d="M34.2585 60.3175C35.2923 59.6422 36.5273 59.2497 37.8542 59.2497C41.49 59.2497 44.4375 62.1972 44.4375 65.833C44.4375 69.469 41.49 72.4164 37.8542 72.4164C34.2314 72.4164 31.2921 69.4901 31.271 65.8722L30.9023 59.2497H28.3477L27.979 65.8722C27.9579 69.4901 25.0186 72.4164 21.3958 72.4164C17.76 72.4164 14.8125 69.469 14.8125 65.833C14.8125 62.1972 17.76 59.2497 21.3958 59.2497C22.7227 59.2497 23.9577 59.6422 24.9915 60.3175L27.9816 6.60022L29.625 6.6917L31.2684 6.60022L34.2585 60.3175ZM28.5308 55.958L29.625 36.3038L30.7192 55.958H28.5308ZM27.9792 29.625C27.9792 30.534 28.716 31.2708 29.625 31.2708C30.534 31.2708 31.2708 30.534 31.2708 29.625C31.2708 28.716 30.534 27.9792 29.625 27.9792C28.716 27.9792 27.9792 28.716 27.9792 29.625ZM41.1458 65.833C41.1458 64.0152 39.6722 62.5414 37.8542 62.5414C36.0362 62.5414 34.5625 64.0152 34.5625 65.833C34.5625 67.651 36.0362 69.1247 37.8542 69.1247C39.6722 69.1247 41.1458 67.651 41.1458 65.833ZM21.3958 62.5414C23.2138 62.5414 24.6875 64.0152 24.6875 65.833C24.6875 67.651 23.2138 69.1247 21.3958 69.1247C19.5778 69.1247 18.1042 67.651 18.1042 65.833C18.1042 64.0152 19.5778 62.5414 21.3958 62.5414Z" fill="#B2DBD8"/>
<path fill-rule="evenodd" clip-rule="evenodd" d="M51.0208 6.96826V26.3335C51.0208 29.0603 53.2313 31.271 55.9583 31.271C58.6583 31.271 60.9709 29.0527 60.7908 26.2237C60.3604 19.4593 58.6728 15.0806 57 12.3446C56.1657 10.9801 55.3439 10.0387 54.7034 9.42269C54.3836 9.11515 54.1102 8.88985 53.9045 8.73416C53.8018 8.65634 53.716 8.59597 53.6499 8.55144C53.6169 8.52917 53.5888 8.51089 53.5659 8.49634L53.5356 8.47733L53.5235 8.4699L53.5182 8.46669L53.5157 8.46521C53.5157 8.46521 53.5134 8.46381 52.6666 9.87512L53.5134 8.46381L51.0208 6.96826ZM54.3125 14.2627C55.6425 16.5156 57.117 20.3201 57.5059 26.4327C57.5567 27.2323 56.8941 27.9793 55.9583 27.9793C55.0493 27.9793 54.3125 27.2425 54.3125 26.3335V14.2627Z" fill="#B2DBD8"/>
<path fill-rule="evenodd" clip-rule="evenodd" d="M54.3125 68.3021V33.7396C54.3125 33.2852 54.681 32.9167 55.1354 32.9167C55.5898 32.9167 55.9583 33.2852 55.9583 33.7396V68.3021C55.9583 68.7565 55.5898 69.125 55.1354 69.125C54.681 69.125 54.3125 68.7565 54.3125 68.3021ZM55.1354 29.625C57.4078 29.625 59.25 31.4672 59.25 33.7396V68.3021C59.25 70.5745 57.4078 72.4167 55.1354 72.4167C52.863 72.4167 51.0208 70.5745 51.0208 68.3021V33.7396C51.0208 31.4672 52.863 29.625 55.1354 29.625Z" fill="#B2DBD8"/>
<path fill-rule="evenodd" clip-rule="evenodd" d="M58.7679 38.3364L53.8304 33.3989L51.5029 35.7265L56.4404 40.664L58.7679 38.3364Z" fill="#B2DBD8"/>
<path fill-rule="evenodd" clip-rule="evenodd" d="M58.7679 44.9197L53.8304 39.9822L51.5029 42.3097L56.4404 47.2472L58.7679 44.9197Z" fill="#B2DBD8"/>
<path fill-rule="evenodd" clip-rule="evenodd" d="M58.7679 51.5031L53.8304 46.5656L51.5029 48.8931L56.4404 53.8306L58.7679 51.5031Z" fill="#B2DBD8"/>
</svg>
