<svg width="79" height="79" viewBox="0 0 79 79" fill="none" xmlns="http://www.w3.org/2000/svg">
<path d="M4.62891 1.23438H74.6797V56.1641H36.9695L32.8652 66.8414C31.6926 70.0508 28.9461 72.2418 25.8293 72.8281L23.916 78.6605H7.77656L11.6031 67.6437C9.59727 65.175 8.8875 61.6879 10.0602 58.5094L11.1094 56.1641H4.62891V1.23438ZM8.02344 52.7695H12.8684L16.8492 41.8762C17.3121 40.7035 18.4848 39.8395 19.8426 39.8395C21.6324 39.8395 23.052 41.2898 23.052 43.0488C23.052 43.7895 22.2496 45.7645 22.0953 46.1965L19.6883 52.7695H71.2852V4.32031H8.02344V52.7695Z" fill="#B2DBD8"/>
<path d="M55.5777 23.7617H42.5859V27.4648H54.1273C54.8063 27.4648 55.3309 28.0203 55.3309 28.6992C55.3309 29.3781 54.7754 29.9336 54.1273 29.9336H42.5859V33.6367H53.7262C54.1891 33.6367 54.868 34.0996 54.868 34.8402C54.868 41.3516 54.2816 44.4375 50.8563 44.4375C47.1531 44.4375 46.5977 36.5375 42.5859 36.2289V43.5117H36.4141V36.2598C32.7109 36.7535 31.9703 44.4684 28.4215 44.4684C24.9961 44.4684 24.1937 41.3516 24.1937 34.8402C24.1937 34.0996 24.9035 33.6367 25.3664 33.6367H36.4141V29.9336H24.9344C24.2555 29.9336 23.7309 29.3781 23.7309 28.6992C23.7309 28.0203 24.2863 27.4648 24.9344 27.4648H36.4141V23.7617H23.4223C22.7434 23.7617 22.2188 23.2062 22.2188 22.5273C22.2188 21.8484 22.7742 21.293 23.4223 21.293H36.4141V17.5898H24.2246C23.5457 17.5898 23.0211 17.0344 23.0211 16.3555C23.0211 15.6766 23.5766 15.1211 24.2246 15.1211H36.4141V11.1094H26.9402C26.2613 11.1094 25.7367 10.5539 25.7367 9.875C25.7367 9.19609 26.2922 8.64062 26.9402 8.64062H36.4141V6.78906H42.5859V8.64062H52.1215C52.8004 8.64062 53.325 9.19609 53.325 9.875C53.325 10.5539 52.8004 11.1094 52.1215 11.1094H42.5859V15.1211H54.7754C55.4543 15.1211 55.9789 15.6766 55.9789 16.3555C55.9789 17.0344 55.4234 17.5898 54.7754 17.5898H42.5859V21.293H55.5777C56.2566 21.293 56.7812 21.8484 56.7812 22.5273C56.7812 23.2062 56.2566 23.7617 55.5777 23.7617Z" fill="#B2DBD8"/>
</svg>
