<svg width="56" height="56" viewBox="0 0 56 56" fill="none" xmlns="http://www.w3.org/2000/svg">
<path d="M46.7381 14.5119L37.9881 5.76188C37.8255 5.59942 37.6324 5.47059 37.42 5.38276C37.2075 5.29493 36.9799 5.24982 36.75 5.25H19.25C18.3217 5.25 17.4315 5.61875 16.7751 6.27513C16.1187 6.9315 15.75 7.82174 15.75 8.75V12.25H12.25C11.3217 12.25 10.4315 12.6187 9.77513 13.2751C9.11875 13.9315 8.75 14.8217 8.75 15.75V47.25C8.75 48.1783 9.11875 49.0685 9.77513 49.7249C10.4315 50.3812 11.3217 50.75 12.25 50.75H36.75C37.6783 50.75 38.5685 50.3812 39.2249 49.7249C39.8813 49.0685 40.25 48.1783 40.25 47.25V43.75H43.75C44.6783 43.75 45.5685 43.3812 46.2249 42.7249C46.8812 42.0685 47.25 41.1783 47.25 40.25V15.75C47.2502 15.5201 47.2051 15.2925 47.1172 15.08C47.0294 14.8676 46.9006 14.6745 46.7381 14.5119ZM36.75 47.25H12.25V15.75H29.0259L36.75 23.4741V41.965C36.75 41.9781 36.75 41.9891 36.75 42C36.75 42.0109 36.75 42.0219 36.75 42.035V47.25ZM43.75 40.25H40.25V22.75C40.2502 22.5201 40.2051 22.2925 40.1172 22.08C40.0294 21.8676 39.9006 21.6745 39.7381 21.5119L30.9881 12.7619C30.8255 12.5994 30.6324 12.4706 30.42 12.3828C30.2075 12.2949 29.9799 12.2498 29.75 12.25H19.25V8.75H36.0259L43.75 16.4741V40.25ZM31.5 33.25C31.5 33.7141 31.3156 34.1593 30.9874 34.4874C30.6593 34.8156 30.2141 35 29.75 35H19.25C18.7859 35 18.3408 34.8156 18.0126 34.4874C17.6844 34.1593 17.5 33.7141 17.5 33.25C17.5 32.7859 17.6844 32.3407 18.0126 32.0126C18.3408 31.6844 18.7859 31.5 19.25 31.5H29.75C30.2141 31.5 30.6593 31.6844 30.9874 32.0126C31.3156 32.3407 31.5 32.7859 31.5 33.25ZM31.5 40.25C31.5 40.7141 31.3156 41.1592 30.9874 41.4874C30.6593 41.8156 30.2141 42 29.75 42H19.25C18.7859 42 18.3408 41.8156 18.0126 41.4874C17.6844 41.1592 17.5 40.7141 17.5 40.25C17.5 39.7859 17.6844 39.3408 18.0126 39.0126C18.3408 38.6844 18.7859 38.5 19.25 38.5H29.75C30.2141 38.5 30.6593 38.6844 30.9874 39.0126C31.3156 39.3408 31.5 39.7859 31.5 40.25Z" fill="#2F948C"/>
</svg>
