<svg width="56" height="56" viewBox="0 0 56 56" fill="none" xmlns="http://www.w3.org/2000/svg">
<path d="M54.25 45.5H52.5V28C52.5 27.0717 52.1312 26.1815 51.4749 25.5251C50.8185 24.8687 49.9283 24.5 49 24.5H36.75V10.5C36.75 9.57174 36.3813 8.6815 35.7249 8.02513C35.0685 7.36875 34.1783 7 33.25 7H12.25C11.3217 7 10.4315 7.36875 9.77513 8.02513C9.11875 8.6815 8.75 9.57174 8.75 10.5V45.5H7C6.53587 45.5 6.09075 45.6844 5.76256 46.0126C5.43437 46.3408 5.25 46.7859 5.25 47.25C5.25 47.7141 5.43437 48.1592 5.76256 48.4874C6.09075 48.8156 6.53587 49 7 49H54.25C54.7141 49 55.1592 48.8156 55.4874 48.4874C55.8156 48.1592 56 47.7141 56 47.25C56 46.7859 55.8156 46.3408 55.4874 46.0126C55.1592 45.6844 54.7141 45.5 54.25 45.5ZM49 28V45.5H36.75V28H49ZM12.25 10.5H33.25V45.5H29.75V35C29.75 34.5359 29.5656 34.0907 29.2374 33.7626C28.9093 33.4344 28.4641 33.25 28 33.25H17.5C17.0359 33.25 16.5908 33.4344 16.2626 33.7626C15.9344 34.0907 15.75 34.5359 15.75 35V45.5H12.25V10.5ZM26.25 45.5H19.25V36.75H26.25V45.5ZM15.75 21C15.75 20.5359 15.9344 20.0908 16.2626 19.7626C16.5908 19.4344 17.0359 19.25 17.5 19.25H21V15.75C21 15.2859 21.1844 14.8408 21.5126 14.5126C21.8408 14.1844 22.2859 14 22.75 14C23.2141 14 23.6592 14.1844 23.9874 14.5126C24.3156 14.8408 24.5 15.2859 24.5 15.75V19.25H28C28.4641 19.25 28.9093 19.4344 29.2374 19.7626C29.5656 20.0908 29.75 20.5359 29.75 21C29.75 21.4641 29.5656 21.9092 29.2374 22.2374C28.9093 22.5656 28.4641 22.75 28 22.75H24.5V26.25C24.5 26.7141 24.3156 27.1592 23.9874 27.4874C23.6592 27.8156 23.2141 28 22.75 28C22.2859 28 21.8408 27.8156 21.5126 27.4874C21.1844 27.1592 21 26.7141 21 26.25V22.75H17.5C17.0359 22.75 16.5908 22.5656 16.2626 22.2374C15.9344 21.9092 15.75 21.4641 15.75 21Z" fill="#2F948C"/>
</svg>
