<svg width="56" height="56" viewBox="0 0 56 56" fill="none" xmlns="http://www.w3.org/2000/svg">
<path d="M50.2381 12.7619L43.2381 5.76191C43.0756 5.5992 42.8826 5.47012 42.6701 5.38205C42.4577 5.29399 42.23 5.24866 42 5.24866C41.77 5.24866 41.5423 5.29399 41.3299 5.38205C41.1174 5.47012 40.9244 5.5992 40.7619 5.76191L19.7619 26.7619C19.5994 26.9245 19.4706 27.1176 19.3828 27.33C19.2949 27.5425 19.2498 27.7702 19.25 28V35C19.25 35.4642 19.4344 35.9093 19.7626 36.2375C20.0908 36.5657 20.5359 36.75 21 36.75H28C28.2299 36.7502 28.4575 36.7051 28.67 36.6173C28.8824 36.5294 29.0755 36.4006 29.2381 36.2382L50.2381 15.2382C50.4008 15.0756 50.5299 14.8826 50.618 14.6702C50.706 14.4577 50.7514 14.23 50.7514 14C50.7514 13.7701 50.706 13.5423 50.618 13.3299C50.5299 13.1174 50.4008 12.9244 50.2381 12.7619ZM27.2759 33.25H22.75V28.7241L36.75 14.7241L41.2759 19.25L27.2759 33.25ZM43.75 16.776L39.2241 12.25L42 9.4741L46.5259 14L43.75 16.776ZM49 28V45.5C49 46.4283 48.6312 47.3185 47.9749 47.9749C47.3185 48.6313 46.4283 49 45.5 49H10.5C9.57174 49 8.6815 48.6313 8.02513 47.9749C7.36875 47.3185 7 46.4283 7 45.5V10.5C7 9.57178 7.36875 8.68154 8.02513 8.02516C8.6815 7.36878 9.57174 7.00003 10.5 7.00003H28C28.4641 7.00003 28.9092 7.18441 29.2374 7.5126C29.5656 7.84079 29.75 8.2859 29.75 8.75003C29.75 9.21416 29.5656 9.65928 29.2374 9.98747C28.9092 10.3157 28.4641 10.5 28 10.5H10.5V45.5H45.5V28C45.5 27.5359 45.6844 27.0908 46.0126 26.7626C46.3407 26.4344 46.7859 26.25 47.25 26.25C47.7141 26.25 48.1592 26.4344 48.4874 26.7626C48.8156 27.0908 49 27.5359 49 28Z" fill="#2F948C"/>
</svg>
