<svg width="56" height="56" viewBox="0 0 56 56" fill="none" xmlns="http://www.w3.org/2000/svg">
<path d="M45.5 8.75H10.5C9.57174 8.75 8.6815 9.11875 8.02513 9.77513C7.36875 10.4315 7 11.3217 7 12.25V24.5C7 36.0325 12.5825 43.0216 17.2659 46.8541C22.3103 50.9797 27.3284 52.3797 27.5472 52.4388C27.848 52.5206 28.1652 52.5206 28.4659 52.4388C28.6847 52.3797 33.6963 50.9797 38.7472 46.8541C43.4175 43.0216 49 36.0325 49 24.5V12.25C49 11.3217 48.6312 10.4315 47.9749 9.77513C47.3185 9.11875 46.4283 8.75 45.5 8.75ZM45.5 24.5C45.5 32.6091 42.5119 39.1913 36.6187 44.0606C34.0534 46.1731 31.1359 47.817 28 48.9169C24.9051 47.8362 22.0236 46.2214 19.4862 44.1459C13.5231 39.2678 10.5 32.6594 10.5 24.5V12.25H45.5V24.5ZM18.0119 30.9881C17.6835 30.6598 17.499 30.2144 17.499 29.75C17.499 29.2856 17.6835 28.8402 18.0119 28.5119C18.3402 28.1835 18.7856 27.999 19.25 27.999C19.7144 27.999 20.1598 28.1835 20.4881 28.5119L24.5 32.5259L35.5119 21.5119C35.6745 21.3493 35.8675 21.2203 36.0799 21.1323C36.2924 21.0443 36.5201 20.999 36.75 20.999C36.9799 20.999 37.2076 21.0443 37.4201 21.1323C37.6325 21.2203 37.8255 21.3493 37.9881 21.5119C38.1507 21.6745 38.2797 21.8675 38.3677 22.0799C38.4557 22.2924 38.501 22.5201 38.501 22.75C38.501 22.9799 38.4557 23.2076 38.3677 23.4201C38.2797 23.6325 38.1507 23.8255 37.9881 23.9881L25.7381 36.2381C25.5756 36.4008 25.3826 36.5299 25.1701 36.618C24.9577 36.7061 24.73 36.7514 24.5 36.7514C24.27 36.7514 24.0423 36.7061 23.8299 36.618C23.6174 36.5299 23.4244 36.4008 23.2619 36.2381L18.0119 30.9881Z" fill="#2F948C"/>
</svg>
