<svg width="49" height="48" viewBox="0 0 49 48" fill="none" xmlns="http://www.w3.org/2000/svg">
<path d="M48.8191 17.7753C48.6003 17.1027 48.1873 16.5099 47.6322 16.0716C47.0771 15.6333 46.4047 15.369 45.6997 15.3122L32.7934 14.2709L27.8103 2.22001C27.5408 1.56336 27.0822 1.00168 26.4926 0.606373C25.9031 0.211069 25.2093 0 24.4995 0C23.7897 0 23.096 0.211069 22.5064 0.606373C21.9169 1.00168 21.4582 1.56336 21.1888 2.22001L16.21 14.2688L3.29719 15.3122C2.59101 15.3719 1.91816 15.6387 1.36294 16.0791C0.807724 16.5196 0.394824 17.1141 0.175977 17.7881C-0.0428709 18.4622 -0.0579336 19.1858 0.132676 19.8684C0.323285 20.551 0.711089 21.1622 1.2475 21.6253L11.0913 30.1194L8.09219 42.82C7.92446 43.51 7.96553 44.2343 8.21018 44.9009C8.45483 45.5675 8.89203 46.1464 9.46629 46.5641C10.0405 46.9818 10.726 47.2194 11.4355 47.2468C12.1451 47.2743 12.8468 47.0902 13.4516 46.7181L24.4984 39.9194L35.5519 46.7181C36.1569 47.0858 36.8572 47.2663 37.5645 47.2368C38.2719 47.2073 38.9547 46.9692 39.527 46.5524C40.0993 46.1357 40.5355 45.5589 40.7806 44.8947C41.0258 44.2305 41.069 43.5087 40.9047 42.82L37.8947 30.1172L47.7384 21.6231C48.2792 21.1608 48.6705 20.5483 48.8629 19.8633C49.0553 19.1783 49.04 18.4516 48.8191 17.7753ZM45.4634 18.9719L34.8103 28.1594C34.5674 28.3688 34.3866 28.6409 34.2879 28.9461C34.1891 29.2512 34.1761 29.5777 34.2503 29.8897L37.5053 43.6272C37.5137 43.6461 37.5146 43.6676 37.5077 43.6871C37.5007 43.7066 37.4866 43.7228 37.4681 43.7322C37.4287 43.7628 37.4178 43.7563 37.385 43.7322L25.415 36.3713C25.1393 36.2018 24.8221 36.112 24.4984 36.112C24.1748 36.112 23.8576 36.2018 23.5819 36.3713L11.6119 43.7366C11.5791 43.7563 11.5703 43.7628 11.5288 43.7366C11.5103 43.7272 11.4961 43.711 11.4892 43.6915C11.4823 43.672 11.4831 43.6505 11.4916 43.6316L14.7466 29.8941C14.8207 29.582 14.8077 29.2556 14.709 28.9505C14.6102 28.6453 14.4295 28.3732 14.1866 28.1638L3.53344 18.9763C3.50719 18.9544 3.48313 18.9347 3.505 18.8669C3.52688 18.7991 3.54438 18.8078 3.57719 18.8034L17.5597 17.6747C17.8804 17.6472 18.1873 17.5318 18.4467 17.3411C18.706 17.1505 18.9077 16.892 19.0297 16.5941L24.4153 3.55438C24.4328 3.5172 24.4394 3.4997 24.4919 3.4997C24.5444 3.4997 24.5509 3.5172 24.5684 3.55438L29.9672 16.5941C30.0903 16.8921 30.2933 17.1503 30.5539 17.3402C30.8144 17.5301 31.1224 17.6444 31.4438 17.6703L45.4263 18.7991C45.4591 18.7991 45.4788 18.7991 45.4984 18.8625C45.5181 18.9259 45.4984 18.95 45.4634 18.9719Z" fill="#2F948C"/>
</svg>
